<?xml version="1.0" encoding="utf-8"?>
<!-- Generator: Adobe Illustrator 15.1.0, SVG Export Plug-In . SVG Version: 6.00 Build 0)  -->
<!DOCTYPE svg PUBLIC "-//W3C//DTD SVG 1.1//EN" "http://www.w3.org/Graphics/SVG/1.1/DTD/svg11.dtd">
<svg version="1.1" id="Layer_1" xmlns="http://www.w3.org/2000/svg" xmlns:xlink="http://www.w3.org/1999/xlink" x="0px" y="0px"
	 width="75.004px" height="75px" viewBox="87.498 0 75.004 75" enable-background="new 87.498 0 75.004 75" xml:space="preserve">
<title>logo</title>
<desc>Created with Sketch.</desc>
<g id="Page-1">
	<g id="logo">
		<g id="Group" transform="translate(13.000000, 13.000000)">
			<g id="Stroke-93">
				<path fill="#1A1919" d="M83.227,35.328c-0.272,0-0.544-0.105-0.751-0.312c-0.416-0.414-0.416-1.088,0-1.504l18.875-18.873
					c0.415-0.415,1.088-0.416,1.503,0c0.416,0.415,0.416,1.088,0,1.503L83.979,35.016C83.771,35.223,83.499,35.328,83.227,35.328z"
					/>
			</g>
			<g id="Stroke-95">
				<path fill="#1A1919" d="M86.479,48.852c-0.272,0-0.544-0.104-0.751-0.311c-0.416-0.416-0.416-1.09,0-1.504l18.873-18.875
					c0.415-0.414,1.088-0.414,1.503,0c0.416,0.414,0.416,1.088,0,1.504L87.23,48.541C87.023,48.748,86.751,48.852,86.479,48.852z"/>
			</g>
			<g id="Stroke-97">
				<path fill="#1A1919" d="M100.004,52.104c-0.272,0-0.544-0.104-0.751-0.311c-0.416-0.416-0.416-1.09,0-1.504l18.873-18.875
					c0.415-0.414,1.088-0.414,1.503,0c0.416,0.416,0.416,1.09,0,1.504l-18.873,18.875C100.548,52,100.276,52.104,100.004,52.104z"/>
			</g>
			<g id="Fill-111">
				<polygon fill="#FFFFFE" points="137.328,-3.03 137.328,22.667 111.632,22.667 111.632,-3.029 				"/>
			</g>
			<g id="Stroke-113">
				<path fill="#1C1B19" d="M137.395,23.8h-25.8c-0.587,0-1.063-0.477-1.063-1.063V-3.062c0-0.587,0.476-1.063,1.063-1.063
					l25.8-0.001c0.281,0,0.552,0.112,0.751,0.312c0.2,0.199,0.312,0.47,0.312,0.751v25.8C138.457,23.324,137.98,23.8,137.395,23.8z
					 M112.657,21.673h23.674V-2l-23.674,0.001V21.673z"/>
			</g>
			<g id="Fill-115">
				<path fill="#FFFFFE" d="M121.188,13.111c-7.121-7.122-18.667-7.122-25.789,0c-7.123,7.121-7.123,18.668,0,25.79
					c7.121,7.123,18.667,7.121,25.789,0C128.311,31.779,128.309,20.232,121.188,13.111"/>
			</g>
			<g id="Stroke-117">
				<path fill="#1C1B19" d="M108.294,45.305c-0.001,0-0.001,0-0.001,0c-5.155,0-10.001-2.008-13.646-5.652
					c-3.646-3.645-5.654-8.49-5.654-13.646c0-5.156,2.008-10.002,5.654-13.647c3.645-3.645,8.491-5.653,13.646-5.653
					c5.156,0,10.001,2.008,13.646,5.653c3.645,3.645,5.652,8.491,5.653,13.646c0,5.154-2.007,10.002-5.653,13.646
					C118.295,43.297,113.448,45.305,108.294,45.305z M108.293,8.833c-4.587,0-8.899,1.786-12.143,5.03
					c-3.245,3.244-5.031,7.556-5.031,12.144c0,4.588,1.787,8.9,5.031,12.143c3.243,3.244,7.555,5.031,12.143,5.031
					c0,0,0.001,0,0.001,0c4.586,0,8.899-1.787,12.142-5.031c3.243-3.242,5.03-7.555,5.03-12.143c0-4.587-1.787-8.9-5.03-12.144
					S112.881,8.833,108.293,8.833z"/>
			</g>
			<g id="Fill-119">
				<polygon fill="#FFFFFE" points="107.239,7.724 116.906,17.392 126.574,27.059 137.373,22.712 111.584,-3.077 				"/>
			</g>
			<g id="Stroke-121">
				<path fill="#1C1B19" d="M126.574,28.123c-0.275,0-0.548-0.109-0.751-0.312L106.487,8.476c-0.301-0.301-0.394-0.753-0.235-1.148
					l4.346-10.801c0.133-0.331,0.424-0.573,0.773-0.645c0.351-0.071,0.712,0.038,0.964,0.29l25.789,25.789
					c0.252,0.253,0.361,0.615,0.29,0.965s-0.313,0.64-0.645,0.773l-10.799,4.346C126.844,28.098,126.709,28.123,126.574,28.123z
					 M108.487,7.469l18.343,18.341l8.654-3.484L111.97-1.188L108.487,7.469z"/>
			</g>
			<g id="Fill-123">
				<path fill="#FFFFFE" d="M108.842,9.189c-0.99,0.992-2.602,0.992-3.594,0c-0.99-0.992-0.99-2.601,0.002-3.594
					c0.996-0.992,2.602-0.992,3.592,0C109.834,6.587,109.834,8.197,108.842,9.189"/>
			</g>
			<g id="Stroke-125">
				<path fill="#1C1B19" d="M107.046,10.996c-0.963,0-1.869-0.375-2.549-1.056c-1.403-1.405-1.402-3.691,0.002-5.097
					c1.368-1.363,3.738-1.361,5.096,0c0.68,0.68,1.055,1.584,1.055,2.548s-0.375,1.868-1.056,2.549
					C108.915,10.621,108.01,10.996,107.046,10.996z M107.048,5.914c-0.395,0-0.767,0.154-1.047,0.434
					c-0.575,0.575-0.576,1.514,0,2.09c0.557,0.557,1.534,0.559,2.089,0c0.28-0.28,0.434-0.651,0.434-1.046s-0.154-0.766-0.433-1.045
					C107.812,6.067,107.442,5.914,107.048,5.914z"/>
			</g>
			<g id="Fill-127">
				<path fill="#FFFFFE" d="M113.799,14.143c-0.992,0.992-2.604,0.992-3.595-0.001c-0.992-0.992-0.992-2.6,0-3.593
					c0.992-0.992,2.603-0.993,3.595,0C114.789,11.541,114.789,13.15,113.799,14.143"/>
			</g>
			<g id="Stroke-129">
				<path fill="#1C1B19" d="M112.002,15.95c-0.964,0-1.87-0.375-2.551-1.057c-1.404-1.403-1.404-3.689,0-5.095
					c1.361-1.362,3.74-1.363,5.099,0c1.403,1.404,1.403,3.69,0.001,5.096C113.871,15.575,112.965,15.95,112.002,15.95z
					 M112.002,10.868c-0.396,0-0.768,0.154-1.046,0.433c-0.576,0.577-0.576,1.514,0,2.089c0.559,0.56,1.533,0.56,2.093,0.001
					c0.575-0.577,0.575-1.515-0.001-2.091C112.769,11.021,112.397,10.868,112.002,10.868z"/>
			</g>
			<g id="Fill-131">
				<path fill="#FFFFFE" d="M118.752,19.097c-0.99,0.992-2.604,0.992-3.594,0c-0.996-0.994-0.992-2.602-0.002-3.595
					c0.992-0.992,2.602-0.993,3.596-0.001C119.744,16.496,119.746,18.105,118.752,19.097"/>
			</g>
			<g id="Stroke-133">
				<path fill="#1C1B19" d="M116.955,20.905c-0.964,0-1.869-0.376-2.549-1.057c-1.404-1.4-1.406-3.688-0.003-5.096
					c1.363-1.363,3.737-1.363,5.101-0.003c0.682,0.683,1.057,1.588,1.057,2.551c0,0.964-0.375,1.87-1.058,2.55
					C118.825,20.529,117.92,20.905,116.955,20.905z M116.955,15.821c-0.396,0-0.768,0.154-1.047,0.433
					c-0.575,0.577-0.575,1.516,0.001,2.091c0.56,0.561,1.535,0.559,2.091,0.001c0.281-0.28,0.435-0.651,0.434-1.045
					c0-0.396-0.154-0.768-0.434-1.048C117.722,15.975,117.35,15.821,116.955,15.821z"/>
			</g>
			<g id="Fill-135">
				<path fill="#FFFFFE" d="M123.703,24.05c-0.992,0.993-2.602,0.993-3.594,0c-0.99-0.992-0.992-2.603,0.002-3.594
					c0.992-0.993,2.6-0.993,3.592,0C124.699,21.448,124.695,23.058,123.703,24.05"/>
			</g>
			<g id="Stroke-137">
				<path fill="#1C1B19" d="M121.906,25.857c-0.963,0-1.868-0.375-2.549-1.057c-0.68-0.68-1.054-1.585-1.054-2.547
					c0-0.964,0.376-1.87,1.058-2.55c1.357-1.359,3.732-1.361,5.094,0.001c0.68,0.676,1.057,1.58,1.057,2.542
					c0.002,0.965-0.373,1.873-1.057,2.556C123.775,25.482,122.869,25.857,121.906,25.857z M121.908,20.775
					c-0.395,0-0.766,0.153-1.044,0.433c-0.28,0.28-0.435,0.65-0.435,1.046c0,0.395,0.154,0.767,0.433,1.046
					c0.556,0.559,1.53,0.559,2.089,0c0.281-0.281,0.436-0.654,0.436-1.05c-0.001-0.394-0.154-0.763-0.434-1.039
					C122.672,20.928,122.302,20.775,121.908,20.775z"/>
			</g>
			<g id="Fill-139">
				<path fill="#FFFFFE" d="M128.656,29.004c-0.987,0.992-2.6,0.992-3.59,0.002c-0.994-0.994-0.994-2.604-0.002-3.596
					c0.992-0.993,2.604-0.993,3.594,0C129.65,26.402,129.652,28.014,128.656,29.004"/>
			</g>
			<g id="Stroke-141">
				<path fill="#1C1B19" d="M126.862,30.811c-0.964,0-1.868-0.373-2.548-1.053c-0.681-0.682-1.057-1.588-1.057-2.551
					s0.375-1.869,1.056-2.549c1.36-1.361,3.739-1.36,5.098,0.001c0.682,0.681,1.057,1.589,1.056,2.554
					c-0.002,0.963-0.379,1.865-1.061,2.545C128.732,30.436,127.826,30.811,126.862,30.811z M126.863,25.729
					c-0.396,0-0.768,0.154-1.047,0.434c-0.279,0.277-0.433,0.65-0.432,1.045c0,0.395,0.154,0.768,0.434,1.047
					c0.557,0.555,1.531,0.557,2.084,0c0.283-0.281,0.438-0.65,0.438-1.045c0.001-0.395-0.152-0.768-0.433-1.047
					C127.629,25.883,127.258,25.729,126.863,25.729z"/>
			</g>
		</g>
	</g>
</g>
</svg>
