<?xml version="1.0" encoding="utf-8"?>
<!-- Generator: Adobe Illustrator 20.1.0, SVG Export Plug-In . SVG Version: 6.00 Build 0)  -->
<svg version="1.1" id="Capa_1" xmlns="http://www.w3.org/2000/svg" xmlns:xlink="http://www.w3.org/1999/xlink" x="0px" y="0px"
	 viewBox="0 0 57 57" style="enable-background:new 0 0 57 57;" xml:space="preserve">
<style type="text/css">
	.st0{fill:#FFFFFF;stroke:#FFFFFF;}
</style>
<path class="st0" d="M53.4,9.5C52.2,5.2,43.6,1,28.5,1S4.8,5.2,3.6,9.5C3.6,9.7,3.5,9.8,3.5,10v0.5V22v0.5V23v11v0.5V35v12
	c0,0.2,0,0.3,0.1,0.5C4.8,52.3,15.4,56,28.5,56c13.1,0,23.7-3.6,24.9-8.5c0.1-0.1,0.1-0.3,0.1-0.5V35v-0.5V34V23v-0.5V22V10.5V10
	C53.5,9.8,53.4,9.7,53.4,9.5z M51.4,35c0,0.1-0.1,0.2-0.1,0.4c0,0.1-0.1,0.2-0.1,0.3c-0.1,0.1-0.1,0.2-0.2,0.4
	c-0.1,0.1-0.1,0.2-0.2,0.3c-0.1,0.1-0.2,0.3-0.4,0.4c-0.1,0.1-0.2,0.2-0.3,0.2c-0.2,0.1-0.3,0.3-0.5,0.4c-0.1,0.1-0.2,0.1-0.3,0.2
	c-0.2,0.2-0.5,0.3-0.7,0.5c-0.1,0-0.1,0.1-0.2,0.1c-0.3,0.2-0.6,0.3-0.9,0.5c0,0-0.1,0-0.1,0.1c-0.4,0.2-0.8,0.4-1.2,0.5
	c0,0,0,0,0,0c-2.3,0.9-5.2,1.7-8.6,2.2c0,0,0,0-0.1,0c-0.7,0.1-1.3,0.2-2,0.3c-0.1,0-0.2,0-0.3,0c-0.6,0.1-1.2,0.1-1.8,0.2
	c-0.3,0-0.6,0-0.9,0c-0.5,0-0.9,0.1-1.4,0.1c-0.8,0-1.6,0-2.4,0s-1.6,0-2.4,0c-0.5,0-1,0-1.4-0.1c-0.3,0-0.6,0-0.9,0
	c-0.6,0-1.2-0.1-1.8-0.2c-0.1,0-0.2,0-0.3,0c-0.7-0.1-1.4-0.2-2-0.3c0,0,0,0-0.1,0c-3.4-0.5-6.3-1.3-8.6-2.2c0,0,0,0,0,0
	c-0.4-0.2-0.8-0.3-1.2-0.5c0,0-0.1,0-0.1-0.1c-0.3-0.2-0.6-0.3-0.9-0.5c-0.1,0-0.1-0.1-0.2-0.1c-0.3-0.2-0.5-0.3-0.7-0.5
	c-0.1-0.1-0.2-0.1-0.3-0.2c-0.2-0.1-0.4-0.3-0.5-0.4c-0.1-0.1-0.2-0.2-0.3-0.2c-0.1-0.1-0.3-0.3-0.4-0.4c-0.1-0.1-0.2-0.2-0.2-0.3
	c-0.1-0.1-0.2-0.2-0.2-0.4c-0.1-0.1-0.1-0.2-0.1-0.3c0-0.1-0.1-0.2-0.1-0.4c0-0.2-0.1-0.3-0.1-0.5c0-0.1,0-0.2,0-0.3
	c0-0.2,0-0.3,0-0.4v-7.4c0,0,0.1,0.1,0.1,0.1c0.2,0.2,0.4,0.4,0.7,0.6C10,29.8,17.6,32,28.5,32c10.9,0,18.4-2.2,22.2-5
	c0.3-0.2,0.6-0.4,0.8-0.7l0,0v7.4c0,0.1-0.1,0.3,0,0.4c0,0.1,0,0.2,0,0.3C51.5,34.7,51.5,34.8,51.4,35z M51.5,14.3v7.4
	c0,0.1-0.1,0.3,0,0.4c0,0.1,0,0.2,0,0.3c0,0.2,0,0.3-0.1,0.5c0,0.1-0.1,0.2-0.1,0.4c0,0.1-0.1,0.2-0.1,0.3c-0.1,0.1-0.1,0.2-0.2,0.4
	c-0.1,0.1-0.1,0.2-0.2,0.3c-0.1,0.1-0.2,0.3-0.4,0.4c-0.1,0.1-0.2,0.2-0.3,0.2c-0.2,0.1-0.3,0.3-0.5,0.4c-0.1,0.1-0.2,0.1-0.3,0.2
	c-0.2,0.2-0.5,0.3-0.7,0.5c-0.1,0-0.1,0.1-0.2,0.1c-0.3,0.2-0.6,0.3-0.9,0.5c0,0-0.1,0-0.1,0.1c-0.4,0.2-0.8,0.4-1.2,0.5
	c0,0,0,0,0,0c-2.3,0.9-5.2,1.7-8.6,2.2c0,0,0,0-0.1,0c-0.7,0.1-1.3,0.2-2,0.3c-0.1,0-0.2,0-0.3,0c-0.6,0.1-1.2,0.1-1.8,0.2
	c-0.3,0-0.6,0-0.9,0c-0.5,0-0.9,0.1-1.4,0.1c-0.8,0-1.6,0-2.4,0s-1.6,0-2.4,0c-0.5,0-1,0-1.4-0.1c-0.3,0-0.6,0-0.9,0
	c-0.6,0-1.2-0.1-1.8-0.2c-0.1,0-0.2,0-0.3,0c-0.7-0.1-1.4-0.2-2-0.3c0,0,0,0-0.1,0c-3.4-0.5-6.3-1.3-8.6-2.2c0,0,0,0,0,0
	c-0.4-0.2-0.8-0.3-1.2-0.5c0,0-0.1,0-0.1-0.1c-0.3-0.2-0.6-0.3-0.9-0.5c-0.1,0-0.1-0.1-0.2-0.1c-0.3-0.2-0.5-0.3-0.7-0.5
	c-0.1-0.1-0.2-0.1-0.3-0.2c-0.2-0.1-0.4-0.3-0.5-0.4c-0.1-0.1-0.2-0.2-0.3-0.2c-0.1-0.1-0.3-0.3-0.4-0.4c-0.1-0.1-0.2-0.2-0.2-0.3
	c-0.1-0.1-0.2-0.2-0.2-0.4c-0.1-0.1-0.1-0.2-0.1-0.3c0-0.1-0.1-0.2-0.1-0.4c0-0.2-0.1-0.3-0.1-0.5c0-0.1,0-0.2,0-0.3
	c0-0.2,0-0.3,0-0.4v-7.4c0.1,0.1,0.3,0.2,0.4,0.3C6,14.7,6,14.7,6.1,14.8c0.3,0.2,0.6,0.5,1,0.7c0.1,0,0.2,0.1,0.2,0.1
	c0.3,0.2,0.6,0.4,0.9,0.5c0.1,0.1,0.2,0.1,0.4,0.2c0.4,0.2,0.7,0.4,1.2,0.5c0.1,0,0.1,0.1,0.2,0.1c0.5,0.2,1,0.4,1.5,0.6
	c0.1,0.1,0.3,0.1,0.4,0.1c0.4,0.1,0.8,0.3,1.3,0.4c0.2,0,0.3,0.1,0.5,0.1c0.6,0.2,1.2,0.3,1.8,0.5c0.1,0,0.2,0,0.3,0.1
	c0.6,0.1,1.1,0.2,1.7,0.3c0.2,0,0.4,0.1,0.6,0.1c0.6,0.1,1.2,0.2,1.8,0.3c0.2,0,0.3,0,0.5,0.1c0.7,0.1,1.5,0.2,2.3,0.2
	c0.2,0,0.4,0,0.6,0c0.6,0,1.3,0.1,1.9,0.1c0.2,0,0.5,0,0.7,0c0.9,0,1.7,0,2.6,0s1.8,0,2.6,0c0.2,0,0.5,0,0.7,0
	c0.7,0,1.3-0.1,1.9-0.1c0.2,0,0.4,0,0.6,0c0.8-0.1,1.6-0.1,2.3-0.2c0.2,0,0.3,0,0.5-0.1c0.6-0.1,1.2-0.2,1.8-0.3
	c0.2,0,0.4-0.1,0.6-0.1c0.6-0.1,1.2-0.2,1.7-0.3c0.1,0,0.2,0,0.3-0.1c0.6-0.1,1.2-0.3,1.8-0.5c0.2,0,0.3-0.1,0.5-0.1
	c0.4-0.1,0.9-0.3,1.3-0.4c0.1,0,0.3-0.1,0.4-0.1c0.5-0.2,1-0.4,1.5-0.6c0.1,0,0.1-0.1,0.2-0.1c0.4-0.2,0.8-0.4,1.2-0.5
	c0.1-0.1,0.2-0.1,0.4-0.2c0.3-0.2,0.6-0.4,0.9-0.5c0.1,0,0.2-0.1,0.2-0.1c0.4-0.2,0.7-0.5,1-0.7c0.1-0.1,0.1-0.1,0.2-0.2
	C51.2,14.5,51.4,14.4,51.5,14.3z M28.5,3c13.6,0,23,4,23,7.5s-9.4,7.5-23,7.5s-23-4-23-7.5S14.9,3,28.5,3z M51.5,46.7
	c0,0,0,0.1,0,0.1c-0.6,3.5-9.9,7.2-23,7.2s-22.4-3.7-23-7.2c0,0,0-0.1,0-0.1v-8.4c0,0,0.1,0.1,0.1,0.1c0.2,0.2,0.4,0.4,0.7,0.6
	C10,41.8,17.6,44,28.5,44c10.9,0,18.4-2.2,22.2-5c0.3-0.2,0.6-0.4,0.8-0.7l0,0V46.7z"/>
</svg>
