<svg width="89" height="89" viewBox="0 0 89 89" fill="none" xmlns="http://www.w3.org/2000/svg">
<circle cx="44.5" cy="44.5" r="44.5" fill="white"/>
<path d="M11.6596 58.1943C11.3586 58.1943 11.0576 58.0809 10.8285 57.8573C10.3682 57.4102 10.3682 56.6823 10.8285 56.233L31.7157 35.8501C32.175 35.4019 32.9197 35.4009 33.379 35.8501C33.8393 36.2983 33.8393 37.0252 33.379 37.4734L12.4917 57.8573C12.2616 58.0809 11.9606 58.1943 11.6596 58.1943Z" fill="#1A1919"/>
<path d="M15.2583 72.8002C14.9573 72.8002 14.6563 72.6878 14.4272 72.4643C13.9669 72.015 13.9669 71.2871 14.4272 70.84L35.3122 50.455C35.7715 50.0078 36.5162 50.0078 36.9754 50.455C37.4358 50.9021 37.4358 51.63 36.9754 52.0793L16.0893 72.4643C15.8603 72.6878 15.5593 72.8002 15.2583 72.8002Z" fill="#1A1919"/>
<path d="M30.2251 76.3123C29.9241 76.3123 29.6231 76.2 29.3941 75.9764C28.9337 75.5272 28.9337 74.7992 29.3941 74.3521L50.2791 53.9671C50.7383 53.52 51.4831 53.52 51.9423 53.9671C52.4026 54.4164 52.4026 55.1443 51.9423 55.5914L31.0573 75.9764C30.8271 76.2 30.5261 76.3123 30.2251 76.3123Z" fill="#1A1919"/>
<path d="M71.5282 16.7676V44.5204H43.0928V16.7687L71.5282 16.7676Z" fill="#FFFFFE"/>
<path d="M71.6023 45.7442H43.0518C42.4022 45.7442 41.8755 45.229 41.8755 44.5961V16.7332C41.8755 16.0993 42.4022 15.5852 43.0518 15.5852L71.6023 15.5841C71.9133 15.5841 72.2131 15.7051 72.4333 15.9211C72.6547 16.136 72.7786 16.4287 72.7786 16.7321V44.5961C72.7775 45.2301 72.2497 45.7442 71.6023 45.7442ZM44.227 43.447H70.4249V17.8802L44.227 17.8813V43.447V43.447Z" fill="#1C1B19"/>
<path d="M53.6675 34.1999C45.7874 26.5081 33.0105 26.5081 25.1292 34.1999C17.2468 41.8906 17.2468 54.3613 25.1292 62.0531C33.0094 69.7459 45.7863 69.7438 53.6675 62.0531C61.5499 54.3613 61.5477 41.8906 53.6675 34.1999Z" fill="#FFFFFE"/>
<path d="M39.3989 68.9694C39.3978 68.9694 39.3978 68.9694 39.3978 68.9694C33.6932 68.9694 28.3306 66.8008 24.297 62.8652C20.2623 58.9286 18.0403 53.696 18.0403 48.1276C18.0403 42.5591 20.2623 37.3254 24.297 33.3888C28.3306 29.4522 33.6932 27.2836 39.3978 27.2836C45.1035 27.2836 50.465 29.4522 54.4986 33.3888C58.5321 37.3254 60.7531 42.5591 60.7542 48.1265C60.7542 53.6928 58.5332 58.9286 54.4986 62.8642C50.4661 66.8008 45.1023 68.9694 39.3989 68.9694ZM39.3978 29.5796C34.3218 29.5796 29.5501 31.5085 25.9602 35.012C22.3693 38.5156 20.3929 43.1725 20.3929 48.1276C20.3929 53.0826 22.3704 57.7396 25.9602 61.242C29.549 64.7455 34.3207 66.6755 39.3978 66.6755H39.3989C44.4738 66.6755 49.2466 64.7455 52.8353 61.242C56.424 57.7406 58.4016 53.0826 58.4016 48.1276C58.4016 43.1736 56.424 38.5156 52.8353 35.012C49.2466 31.5085 44.4749 29.5796 39.3978 29.5796Z" fill="#1C1B19"/>
<path d="M38.2314 28.3819L48.929 38.8234L59.6277 49.2637L71.5779 44.569L43.0396 16.7168L38.2314 28.3819Z" fill="#FFFFFE"/>
<path d="M59.6277 50.4128C59.3234 50.4128 59.0213 50.2951 58.7966 50.0759L37.3993 29.1941C37.0662 28.869 36.9633 28.3808 37.1392 27.9542L41.9485 16.2892C42.0957 15.9317 42.4177 15.6703 42.8039 15.5926C43.1924 15.5159 43.5918 15.6336 43.8707 15.9058L72.409 43.7579C72.6879 44.0311 72.8085 44.4221 72.7299 44.8001C72.6514 45.1781 72.3836 45.4913 72.0162 45.6349L60.0659 50.3286C59.9265 50.3858 59.7771 50.4128 59.6277 50.4128ZM39.6125 28.1065L59.911 47.9148L69.4876 44.1521L43.4668 18.757L39.6125 28.1065Z" fill="#1C1B19"/>
<path d="M40.0053 29.9641C38.9098 31.0355 37.1259 31.0355 36.0282 29.9641C34.9326 28.8928 34.9326 27.155 36.0304 26.0826C37.1326 25.0112 38.9098 25.0112 40.0053 26.0826C41.1031 27.154 41.1031 28.8928 40.0053 29.9641Z" fill="#FFFFFE"/>
<path d="M38.0178 31.9157C36.9522 31.9157 35.9496 31.5107 35.1971 30.7752C33.6445 29.2578 33.6456 26.7889 35.1993 25.2704C36.7132 23.7984 39.3358 23.8006 40.8386 25.2704C41.5911 26.0048 42.0061 26.9812 42.0061 28.0223C42.0061 29.0634 41.5911 30.0397 40.8375 30.7752C40.0861 31.5107 39.0846 31.9157 38.0178 31.9157ZM38.0201 26.4271C37.5829 26.4271 37.1713 26.5934 36.8614 26.8958C36.2251 27.5168 36.224 28.531 36.8614 29.153C37.4778 29.7546 38.559 29.7568 39.1731 29.153C39.483 28.8506 39.6534 28.45 39.6534 28.0234C39.6534 27.5968 39.483 27.1961 39.1743 26.8948C38.8655 26.5924 38.4561 26.4271 38.0201 26.4271Z" fill="#1C1B19"/>
<path d="M45.4908 35.3144C44.393 36.3858 42.6092 36.3858 41.5125 35.3134C40.4148 34.242 40.4148 32.5054 41.5125 31.4329C42.6103 30.3616 44.393 30.3605 45.4908 31.4329C46.5863 32.5043 46.5863 34.242 45.4908 35.3144Z" fill="#FFFFFE"/>
<path d="M43.5022 37.266C42.4354 37.266 41.4328 36.861 40.6792 36.1244C39.1256 34.6092 39.1256 32.1403 40.6792 30.6218C42.1853 29.1509 44.818 29.1498 46.3218 30.6218C47.8744 32.1382 47.8744 34.607 46.3229 36.1255C45.5704 36.861 44.5679 37.266 43.5022 37.266ZM43.5022 31.7774C43.064 31.7774 42.6523 31.9438 42.3447 32.2451C41.7073 32.8682 41.7073 33.8802 42.3447 34.5012C42.9633 35.106 44.0411 35.106 44.6608 34.5023C45.2971 33.8791 45.2971 32.8661 44.6597 32.244C44.351 31.9427 43.9393 31.7774 43.5022 31.7774Z" fill="#1C1B19"/>
<path d="M50.9718 40.6648C49.8763 41.7361 48.0902 41.7361 46.9947 40.6648C45.8925 39.5912 45.8969 37.8546 46.9924 36.7822C48.0902 35.7108 49.8718 35.7097 50.9718 36.7811C52.0696 37.8557 52.0718 39.5934 50.9718 40.6648Z" fill="#FFFFFE"/>
<path d="M48.9832 42.6174C47.9165 42.6174 46.915 42.2113 46.1625 41.4759C44.6088 39.9639 44.6066 37.4928 46.1592 35.9722C47.6675 34.5001 50.2946 34.5001 51.804 35.9689C52.5587 36.7066 52.9737 37.684 52.9737 38.724C52.9737 39.7651 52.5587 40.7436 51.8029 41.478C51.0526 42.2113 50.0511 42.6174 48.9832 42.6174ZM48.9832 37.1267C48.545 37.1267 48.1334 37.293 47.8246 37.5943C47.1883 38.2175 47.1883 39.2316 47.8257 39.8526C48.4454 40.4585 49.5244 40.4563 50.1396 39.8537C50.4506 39.5513 50.621 39.1506 50.6199 38.7251C50.6199 38.2974 50.4495 37.8957 50.1396 37.5933C49.832 37.293 49.4203 37.1267 48.9832 37.1267Z" fill="#1C1B19"/>
<path d="M56.4506 46.014C55.3529 47.0864 53.5712 47.0864 52.4735 46.014C51.3779 44.9426 51.3757 43.2028 52.4757 42.1325C53.5734 41.06 55.3529 41.06 56.4506 42.1325C57.5528 43.2038 57.5484 44.9426 56.4506 46.014Z" fill="#FFFFFE"/>
<path d="M54.4621 47.9656C53.3964 47.9656 52.3949 47.5606 51.6413 46.824C50.8888 46.0896 50.4749 45.1122 50.4749 44.0732C50.4749 43.0321 50.891 42.0536 51.6457 41.3192C53.1474 39.8515 55.7756 39.8494 57.2828 41.3203C58.0353 42.0504 58.4525 43.0267 58.4525 44.0657C58.4547 45.1079 58.0397 46.0885 57.2828 46.8262C56.5303 47.5606 55.5277 47.9656 54.4621 47.9656ZM54.4643 42.477C54.0272 42.477 53.6166 42.6422 53.309 42.9446C52.9991 43.247 52.8276 43.6466 52.8276 44.0743C52.8276 44.5009 52.998 44.9027 53.3068 45.204C53.922 45.8077 54.9999 45.8077 55.6185 45.204C55.9294 44.9005 56.1009 44.4977 56.1009 44.07C56.0998 43.6445 55.9305 43.246 55.6207 42.9479C55.3097 42.6422 54.9003 42.477 54.4643 42.477Z" fill="#1C1B19"/>
<path d="M61.9316 51.3643C60.8394 52.4357 59.0545 52.4357 57.9589 51.3665C56.859 50.293 56.859 48.5542 57.9567 47.4828C59.0545 46.4104 60.8383 46.4104 61.9339 47.4828C63.0316 48.5542 63.0338 50.2951 61.9316 51.3643Z" fill="#FFFFFE"/>
<path d="M59.9464 53.3159C58.8796 53.3159 57.8793 52.9131 57.1268 52.1787C56.3732 51.4421 55.9571 50.4636 55.9571 49.4236C55.9571 48.3835 56.3721 47.4051 57.1257 46.6707C58.6306 45.2008 61.2633 45.2019 62.7671 46.6717C63.5218 47.4072 63.9368 48.3879 63.9357 49.4301C63.9335 50.4701 63.5163 51.4443 62.7616 52.1787C62.0158 52.9109 61.0132 53.3159 59.9464 53.3159ZM59.9475 47.8273C59.5093 47.8273 59.0976 47.9937 58.7889 48.2961C58.4801 48.5952 58.3097 48.9981 58.3108 49.4247C58.3108 49.8513 58.4812 50.2541 58.7911 50.5554C59.4075 51.1548 60.4853 51.157 61.0973 50.5554C61.4104 50.2519 61.582 49.8534 61.582 49.4268C61.5831 49.0002 61.4138 48.5974 61.1028 48.2961C60.7952 47.9937 60.3846 47.8273 59.9475 47.8273Z" fill="#1C1B19"/>
</svg>
